/* XPM */
static char *_[] = {
/* columns rows colors chars-per-pixel */
"32 32 241 2 ",
"   c #261E1B",
".  c #231F1E",
"X  c #241E1E",
"o  c #251F1F",
"O  c #21211F",
"+  c #22211F",
"@  c #23221E",
"#  c #25201C",
"$  c #24201F",
"%  c #26211E",
"&  c #2B221D",
"*  c #231F20",
"=  c #211F22",
"-  c #1D2120",
";  c #1F2322",
":  c #1F2525",
">  c #202020",
",  c #222021",
"<  c #212320",
"1  c #202221",
"2  c #222220",
"3  c #232220",
"4  c #232321",
"5  c #222222",
"6  c #242021",
"7  c #262221",
"8  c #262022",
"9  c #242223",
"0  c #222421",
"q  c #222423",
"w  c #212224",
"e  c #222224",
"r  c #242225",
"t  c #232524",
"y  c #202626",
"u  c #252525",
"i  c #262425",
"p  c #2B2321",
"a  c #282222",
"s  c #292323",
"d  c #292421",
"f  c #2D2324",
"g  c #2A2424",
"h  c #232428",
"j  c #453535",
"k  c #453737",
"l  c #473737",
"z  c #4C3430",
"x  c #433A35",
"c  c #423B35",
"v  c #463835",
"b  c #473835",
"n  c #443937",
"m  c #473936",
"M  c #463837",
"N  c #443B36",
"B  c #463B37",
"V  c #423D37",
"C  c #453C37",
"Z  c #4A3932",
"A  c #493A33",
"S  c #4B3A33",
"D  c #483934",
"F  c #4A3834",
"G  c #4B3834",
"H  c #4B3935",
"J  c #493A35",
"K  c #483936",
"L  c #4A3836",
"P  c #4B3937",
"I  c #483A37",
"U  c #493A37",
"Y  c #4A3B36",
"T  c #4E3B35",
"R  c #4C3837",
"E  c #4C3A36",
"W  c #4D3A36",
"Q  c #4D3B37",
"!  c #4E3B37",
"~  c #493C36",
"^  c #4A3D37",
"/  c #473738",
"(  c #433938",
")  c #433B39",
"_  c #43393A",
"`  c #403A3A",
"'  c #443838",
"]  c #453939",
"[  c #463838",
"{  c #473938",
"}  c #473939",
"|  c #443A38",
" . c #453A38",
".. c #443A39",
"X. c #453B39",
"o. c #463B39",
"O. c #45393B",
"+. c #453B3A",
"@. c #463A3A",
"#. c #473B3B",
"$. c #413D3A",
"%. c #433E3B",
"&. c #473C38",
"*. c #473E39",
"=. c #453D3A",
"-. c #453D3B",
";. c #463C3A",
":. c #473C3A",
">. c #463C3B",
",. c #473D3B",
"<. c #463E3B",
"1. c #443B3C",
"2. c #453B3C",
"3. c #463A3C",
"4. c #473B3D",
"5. c #443B3E",
"6. c #463B3F",
"7. c #433D3F",
"8. c #453C3D",
"9. c #473D3C",
"0. c #473F3C",
"q. c #473F3D",
"w. c #453C3F",
"e. c #463D3E",
"r. c #473E3F",
"t. c #483838",
"y. c #483839",
"u. c #493939",
"i. c #4B3939",
"p. c #493B38",
"a. c #483A39",
"s. c #4A3B38",
"d. c #49393A",
"f. c #483A3A",
"g. c #493B3A",
"h. c #493B3B",
"j. c #4A3A3A",
"k. c #4A3A3B",
"l. c #4B3B3B",
"z. c #4D3938",
"x. c #4C3839",
"c. c #4D3B39",
"v. c #4D393A",
"b. c #4C3A3A",
"n. c #4D3B3B",
"m. c #483D39",
"M. c #4A3C39",
"N. c #4B3C39",
"B. c #483D3B",
"V. c #4B3D3A",
"C. c #4A3C3B",
"Z. c #493E3A",
"A. c #4C3D38",
"S. c #4E3C38",
"D. c #4C3F39",
"F. c #4E3C3A",
"G. c #4C3E3B",
"H. c #4D3E3B",
"J. c #493A3D",
"K. c #4B3B3C",
"L. c #4B3B3E",
"P. c #483C3C",
"I. c #493D3D",
"U. c #4A3C3C",
"Y. c #4B3D3C",
"T. c #4B3D3D",
"R. c #483E3C",
"E. c #493E3C",
"W. c #483E3D",
"Q. c #4A3F3D",
"!. c #483C3E",
"~. c #483E3F",
"^. c #4A3E3E",
"/. c #4C3C3C",
"(. c #4C3C3D",
"). c #4D3D3D",
"_. c #4F3D3D",
"`. c #4C3E3D",
"'. c #4C3E3E",
"]. c #503E3C",
"[. c #45403C",
"{. c #4E403D",
"}. c #483F40",
"|. c #6B5955",
" X c #6D5A54",
".X c #6E5B57",
"XX c #6F5C55",
"oX c #6D5958",
"OX c #6F5C58",
"+X c #6E5C5A",
"@X c #725952",
"#X c #765B50",
"$X c #775A52",
"%X c #765B52",
"&X c #775C53",
"*X c #735A55",
"=X c #725B55",
"-X c #735B57",
";X c #705C55",
":X c #735C54",
">X c #705D57",
",X c #725E57",
"<X c #775C55",
"1X c #765E54",
"2X c #755C57",
"3X c #745D57",
"4X c #775E57",
"5X c #765F57",
"6X c #795B50",
"7X c #795B53",
"8X c #795D52",
"9X c #785954",
"0X c #7B5A55",
"qX c #785956",
"wX c #795A57",
"eX c #7A5B56",
"rX c #7C5B56",
"tX c #785D54",
"yX c #785D56",
"uX c #7B5E56",
"iX c #705B58",
"pX c #745A59",
"aX c #715E58",
"sX c #745C58",
"dX c #755D59",
"fX c #765D58",
"gX c #765D59",
"hX c #775E59",
"jX c #765F59",
"kX c #745C5A",
"lX c #765E5C",
"zX c #7A5B58",
"xX c #7A5B59",
"cX c #795C58",
"vX c #7A5D59",
"bX c #785F58",
"nX c #7A5F58",
"mX c #726159",
"MX c #73605A",
"NX c #746059",
"BX c #77605A",
/* pixels */
"e q 1 0 2 % 9.f.1 1 1 1 1 1 1 1 *.:.a.h.#.8.3 O N [.2 ; y : 1 4 ",
"5 > u 3 $ p ( #.7 7 7 7 7 7 7 7 N o.g.(.f._ a 3 V.n o , , . d   ",
"5 i ` 1.2.] P.P.+.+.+.+.+.+.+.+.;.B.a.l.d.^._ 8.x./.#.~.2.Y.+XMX",
"+ s _ U.T.T.@...h.h.h.h.h.h.h.h.;.B.{ l./ d.f.#.v.d.T.h.{ G 3XyX",
"%.) I.d.y.y.#.>.:.:.:.:.:.:.:.:.| :.a.`.l.l.(.h./.[ @.' V.T 4X$X",
";.:.} f.k.} h.] :.:.:.:.:.:.:.:.B.:. .a.{ a.g.a.a.o.W...m.Z :XtX",
"j.g.:.:.B.B.f.f.h.h.h.h.h.h.h.h.a.o.:.:.B.B.o.:.g.o.>...E.S.3X&X",
"b.u.:.X.X.B.M k.k.k.k.k.k.k.k.k.g.a.B.| ;.;.N *.s.a.#.#.a.E 3X<X",
"9 $ -.:.{ C.:.P.g.g.g.g.g.g.g.g.g.g.g.g.g.g.g.g.f.k.k.K.I Q =XcX",
"* g ( g.Y.{ o.@.g.g.g.g.g.g.g.g.g.g.g.g.g.g.g.g.>.#.k g.a.Q gXqX",
"7.e.P.M ).M E.9.g.g.g.g.g.g.g.g.g.g.g.g.g.g.g.g.V ,.o.Q.o.s.lXxX",
"w.2.U.t.).a.E.+.g.g.g.g.g.g.g.g.g.g.g.g.g.g.g.g.C &.:.:.;.Z.oXpX",
"8 f @.C.j.{ o.+.g.g.g.g.g.g.g.g.g.g.g.g.g.g.g.g.N.U l. .0.N G.W ",
"6 X 9.C.M g.:.P.g.g.g.g.g.g.g.g.g.g.g.g.g.g.g.g.s.i._.a.R.c ~ S ",
"t + %.,.g.Y.g.@.g.g.g.g.g.g.g.g.g.g.g.g.g.g.g.g.@.f.d.{ o.D. XhX",
"- < $.;.o.a.a.h.g.g.g.g.g.g.g.g.g.g.g.g.g.g.g.g.%.>.] P.m E fXwX",
"q 3 8.h.j.u.m.N g.g.g.g.g.g.g.g.g.g.g.g.g.g.g.g.>.@.g.U s.g.@.4.",
"$ s ..#.f.{ B.B.g.g.g.g.g.g.g.g.g.g.g.g.g.g.g.g.B.o.a.g.C.l /.b ",
"9...>.@.#.T.f.} g.g.g.g.g.g.g.g.g.g.g.g.g.g.g.g.I g.P.@.f.N.>XBX",
"a.C.o.>.+.P.} L.g.g.g.g.g.g.g.g.g.g.g.g.g.g.g.g.Y g.#.2.#.L jX%X",
"a.C.o.>.+.P.} L.g.g.g.g.g.g.g.g.g.g.g.g.g.g.g.g.Y g.#.2.#.L jX%X",
"9...>.@.#.T.f.} g.g.g.g.g.g.g.g.g.g.g.g.g.g.g.g.I g.P.@.f.N.>XBX",
"$ s ..#.f.{ B.B.g.g.g.g.g.g.g.g.g.g.g.g.g.g.g.g.B.o.a.g.C.l /.b ",
"q 3 8.h.j.u.m.N g.g.g.g.g.g.g.g.g.g.g.g.g.g.g.g.>.@.g.U s.g.@.4.",
"< @ =.M.K s.B ;.A C.3.P.I ^ a.!.^ &.:.+.2.+.;.:.8.+.#.a.g.#.2.6.",
"5 $ +.a.n.N.a.:.^ g.O.P.m ^ o.O.p.a.@.P.#.f.C.m E.g.g.g./.K H.b ",
"w r }.f.n.i.u.C.B #.J.I. .&.:.!.g.h.} h.} t./.s.J U g.a.u.E ;X4X",
"h = 5.' l.l.C.o.9.#.} f.:.,.o.y.+.P.@.'.g.a.M.m E p.@.2.h.F 5X#X",
"q 3 q.B.M  .;.<...f.n.l.:.X.C.F.>.,. .g.v B C *.N.g.4.6.!.L jX&X",
"# & I A.D M.x <.r.j z.c.M  .H.z p.N.H E Y {.x <.P s.C.a.u.! -XbX",
"mXXX3X2X-XOXH. ...].-XiXG.E..XnXsX3XfXfX-X|.C.+.NX,X,X3XjX*XbX@X",
"%XuX7XrXzXgXR c.>.P 2XdXK I aX$XeX9X0X9XvXkXb.f.1X&X8X6X6X8X&XyX"
};
