/* XPM */
static char *_[] = {
/* columns rows colors chars-per-pixel */
"32 32 39 1 ",
"  c #1E1F1E",
". c #241E1C",
"X c #291F1D",
"o c #1D221E",
"O c #22221E",
"+ c #28201E",
"@ c #1E1E21",
"# c #231F21",
"$ c #281F20",
"% c #1E2322",
"& c #1D2A23",
"* c #232223",
"= c #292223",
"- c #212821",
"; c #212528",
": c #443635",
"> c #4B3734",
", c #443A36",
"< c #4A3935",
"1 c #463639",
"2 c #4B373A",
"3 c #453B3A",
"4 c #4B3B3B",
"5 c #503C3E",
"6 c #444037",
"7 c #44413C",
"8 c #4B403E",
"9 c #4C3E42",
"0 c #77594F",
"q c #795A4F",
"w c #6F5D54",
"e c #6E5C5A",
"r c #735754",
"t c #755C54",
"y c #795C54",
"u c #745D59",
"i c #795C59",
"p c #736059",
"a c #7A615C",
/* pixels */
"ytquO+a0yyyytyyyqiO+pyquqp$*iyyi",
"uwiuO*utypurairyyu*ouywuuu=*wtii",
"44>4%;4<4,,,,33<24*%4>44>8*@8<42",
"184<;*142444445521;;149261*-1<,1",
"3,44*O4<37O+78=348OO4433 =@-4439",
"333,Oo4334.+888434oO1334-*@*1334",
"$*.+-O=O***--o*+O=O-*X-#@#*.=.*=",
";%;O%%#**%**;**-*#%oO*%#;#*O**&o",
"ypX+ptyt+XuyqytqytyytuX;yyuyyyyy",
"ie#.patu%*etutuuuutiue=%iituiiry",
">3934><3%#425<44>4<4>9#%3:33,444",
"4:94248,;*114444<84411*%24444242",
"144:84,6;*94133443<<49.*,7OX77=8",
"13,44333O+13,331333,44OO31.X3888",
"**+O***=- =XOOO##*-##=.-O-*--+=-",
";%OO%%##%***;%***%%****%;**%*;**",
"0qyyyyyyyuyquu.*ttttuttpyyyiX;**",
"puuiriittttauu=%iiyuyayitpyu*@*+",
",,<441744422>4#%444<3<34<,,8O;13",
"44524413444413#;3333344393,3-*41",
"3,7,73-+43,<49O-244242249381-#44",
"444<43#+333,41+o43313331933<=;33",
"**-*%* *#*-#$=O-oOO%OO-%$ *+@#=*",
"o******%**%**#-o*******#%%o**;*%",
"ytqp++pqutttpqpyyyyi*#iyyyyyyt00",
"uwiuO*uyyayiyuiyiuyt*%uutiiiiuut",
"43>4%;4<<43444334<<4-*4<14314<3,",
"18>4;*14334333433341%#1431444544",
"4144*O4444<2<444*+,3**43O-37,3,7",
"3731Oo4331333311.;93*-19++344444",
"=-.#-O=.%***Ooo****#Oo#*%o**O*O-",
"#%*%o%**#*#******%*#OO*%*;*** **"
};
