/* XPM */
static char *C[] = {
/* columns rows colors chars-per-pixel */
"32 32 155 2 ",
"   c #251E1D",
".  c #24211F",
"X  c #2B221D",
"o  c #221F21",
"O  c #1E2322",
"+  c #232222",
"@  c #2A2323",
"#  c #232428",
"$  c #3E3D3B",
"%  c #463B2B",
"&  c #4A3A2F",
"*  c #51362F",
"=  c #463634",
"-  c #4B3731",
";  c #453A36",
":  c #4B3A35",
">  c #473739",
",  c #4B353C",
"<  c #463B3A",
"1  c #4A3B3B",
"2  c #513A32",
"3  c #523B3E",
"4  c #3D402F",
"5  c #3C4333",
"6  c #434132",
"7  c #484035",
"8  c #45413B",
"9  c #4D403B",
"0  c #413540",
"q  c #4D3442",
"w  c #443D42",
"e  c #4C3C42",
"r  c #563844",
"t  c #444042",
"y  c #4F4140",
"u  c #514340",
"i  c #6E5B55",
"p  c #6E5B59",
"a  c #755C55",
"s  c #795C54",
"d  c #765D59",
"f  c #795C59",
"g  c #75605A",
"h  c #78615B",
"j  c #8A552B",
"k  c #9F5F2F",
"l  c #865336",
"z  c #875937",
"x  c #965F36",
"c  c #955839",
"v  c #9A603B",
"b  c #A06337",
"n  c #BB7A3A",
"m  c #E77E15",
"M  c #CF7B35",
"N  c #C57A3D",
"B  c #D57D36",
"V  c #F07C25",
"C  c #E27E32",
"Z  c #8A7B7E",
"A  c #917C79",
"S  c #E68719",
"D  c #F5BE0B",
"F  c #F5BD10",
"G  c #D68432",
"H  c #D88632",
"J  c #D7882B",
"K  c #E98827",
"L  c #EB802E",
"P  c #EF8F29",
"I  c #F18229",
"U  c #F58C2E",
"Y  c #F18C24",
"T  c #E0902D",
"R  c #EC902B",
"E  c #F89223",
"W  c #E98A36",
"Q  c #ED853C",
"!  c #F18D33",
"~  c #F38A39",
"^  c #EA9231",
"/  c #E29F34",
"(  c #EC973A",
")  c #F1963D",
"_  c #EDA52A",
"`  c #E5A134",
"'  c #F4AB33",
"]  c #F0A839",
"[  c #F9B73F",
"{  c #FFC116",
"}  c #F4C618",
"|  c #FFC226",
" . c #F3C927",
".. c #FAC72D",
"X. c #FAC92F",
"o. c #F5C437",
"O. c #FEC635",
"+. c #F5CB34",
"@. c #FBCD32",
"#. c #F5C33D",
"$. c #FCC33C",
"%. c #F4CD3C",
"&. c #FCCB3C",
"*. c #EFD53A",
"=. c #F9D335",
"-. c #F3D23C",
";. c #FED13B",
":. c #FCDB3E",
">. c #8B827D",
",. c #EFAA43",
"<. c #FCBE43",
"1. c #FCC543",
"2. c #F5CC43",
"3. c #FBCC42",
"4. c #FCCD4A",
"5. c #FFD044",
"6. c #F7DA40",
"7. c #FFDF40",
"8. c #FCD44D",
"9. c #FBCD5D",
"0. c #F4D350",
"q. c #F8D555",
"w. c #FFE145",
"e. c #F0D86A",
"r. c #FED67E",
"t. c #8D928E",
"y. c #90988B",
"u. c #998E93",
"i. c #9EA294",
"p. c #C2B49A",
"a. c #F4DC9C",
"s. c #F8E48E",
"d. c #FFE290",
"f. c #FFE69A",
"g. c #F6D8A4",
"h. c #FEE3A3",
"j. c #F9E2AE",
"k. c #D4CBC4",
"l. c #DAD0C6",
"z. c #DFD5CC",
"x. c #E7DFD4",
"c. c #E3DED8",
"v. c #E5E1DE",
"b. c #FFF0DF",
"n. c #EFEFE3",
"m. c #EAE3EA",
"M. c #FAF2E3",
"N. c #F2FEE6",
"B. c #FFF5EB",
"V. c #F9FAEB",
"C. c #F2FDED",
"Z. c #FFF4F3",
"A. c #FFFCF3",
"S. c #FDFEFF",
"D. c #FBF5F9",
/* pixels */
"+ + O + + . 1 < O O O . O O + + < 1 ; 1 < < + + ; 8 + O + O O + ",
"+ O # + . @ ; < @ + o @ @ . + + ; < 1 1 1 > @ + 1 ;   o + + @   ",
"+ # ; < < ; 1 1 < < < < > < < < 1 1 1 1 < 1 > 1 < 1 1 e < 1 p g ",
"+ @ > < e e < ; 1 1 1 1 > 1 1 < < 1 < 1 > 1 < 1 : 1 e 1 < : a a ",
"8 < 1 1 > > < < < 1 < < < < < 1 < < 1 1 1 1 1 1 1 > > ; 1 : h s ",
"< < < 1 1 > 1 < 1 1 < 1 8 1 < 1 1 8 ; < < 1 < < 1 < 8 < 1 - a s ",
"< < < < 1 < 1 < 1 1 1 1 1 1 1 1 < < < < 1 1 < < 1 < < > 8 : a a ",
": < < < < 1 > 1 1 1 1 1 : < 1 1 1 : 1 ; 1 < ; 8 1 > 1 1 1 : a s ",
"@ o 1 < < 1 1 1 9 q 8 ; w b S ( M.S.i.% e 1 : * 1 1 < 1 < : a f ",
"o @ > < 1 : < > % r $ ; & k K ) M.B.u.1 : 0 t w < < ; 1 < 2 d f ",
"w < 1 > e < 1 8 $ $ u N M / 3.$.0.3.g.m.k.9 ; : ; < < 9 > , d f ",
"w < 1 < 1 < 9 < 1 ; - C V _ w.=.O.} f.S.n.< ; q ; 8 1 < < 1 p d ",
"@ @ > 1 1 > < < , v x ` ] [ 4.2.o...r.h.a.u.t.1 : < < : 8 ; 9 : ",
"@   8 1 ; 1 < 1 & W ^ =.:.3.$.2.&.X.X.} +.b.V.e : : 3 < 1 ; < : ",
"+ . < < 1 1 1 > : U P #.-.3.@.&.2.%.%. .q.B.C.w 1 1 < < 1 9 i a ",
"O O $ < < < : 1 < ! R 1.;.1.;.%.&.3.&.$.9.B.V.w < < > < : : a f ",
"+ + w 1 < < < < ; ~ Y o.-.4.&.=.-.&.2.@.4.B.N.1 1 > 1 1 < < > 1 ",
"+ @ > < < : 8 1 < Q ! 3.=.1.1.3.&.1.&.O.9.Z.V., 8 < < 1 1 : 1 ; ",
"< < < < < 1 1 > 5 U E [ 6.5.&.3.3.3.+.{ 3.B.A.w : 1 1 > < 1 d g ",
"1 1 > 1 1 1 > 1 - G G 1.1.o.+.-.&.+.2.8.e.x.v.$ < : 1 < < : d a ",
"< 1 < < < 1 > e e 1 : J I ' 8.$.$.| s.A.c.w ; : : 1 1 < < : f s ",
"< < < < 1 1 1 > : w 8 T L ' w.;. .D s.S.D.t = 3 > > e 1 : 1 a g ",
". @ < < 1 < 1 < w 1 & j l n _ ,.j.h.p.Z A ; 8 > 1 < < : 1 > 1 ; ",
"+ + < 1 : < 8 ; 1 : 1 , ; c m ! D.A.t.e , < 8 1 < < < : < 1 < 1 ",
"+ . < : : 1 1 < : < t < & z N H l.z.>.> < < ; 1 < < < 1 1 < < w ",
"+ . < < : 1 1 1 e 1 ; ; ; 9 : - ; 9 < > 1 1 1 1 9 < 1 1 1 : 1 : ",
"O + t < : < : 1 e , 1 e 1 < t $ < ; 1 e 1 1 > < ; : 1 1 < - a a ",
"# + w > 1 1 1 < 8 - 1 1 1 1 < 2 < w w > 1 u 1 < 1 < < > 1 - g a ",
"+ @ 8 1 < < < 1 ; 3 ; 5 t w $ 3 < ; 1 9 ; > < < < 1 < < 1 : d a ",
". X < : : : ; < t < 1 1 ; ; 1 - 1 ; : 1 : 1 < 9 : 1 1 : : 3 a h ",
"g i a d d p 9 > ; : d f : , f s a f h a a d 1 ; g g i a a a f a ",
"s f s s f f : 1 1 , a f ; : d a a s s s f d : 1 s a s s s s s a "
};
