/* XPM */
static char *C2[] = {
/* columns rows colors chars-per-pixel */
"32 32 25 1 ",
"  c #222222",
". c #483B3A",
"X c #574A49",
"o c #5C504E",
"O c #5D504E",
"+ c #775C55",
"@ c #827774",
"# c #847975",
"$ c #978D88",
"% c #988E89",
"& c #A09691",
"* c #A19792",
"= c #A39994",
"- c #A49B95",
"; c #CEC6BF",
": c #E4DDD4",
"> c #F0E9E0",
", c #F2EBE2",
"< c #F4ECE4",
"1 c #F4EDE4",
"2 c #F5EFE5",
"3 c #FBF4EB",
"4 c #FBF5EB",
"5 c #FDF6ED",
"6 c #FDF7ED",
/* pixels */
"      ..        ......  ..      ",
"      ..        ......  ..      ",
"  ............................++",
"  ............................++",
"..............................++",
"..............................++",
"..............................++",
".............O2222,X..........++",
"  ............66666...........++",
"  .........#%-66664*%#........++",
"...........:666666666:........++",
"...........;666666666;........++",
"  .........;666666666;..........",
"  .........;666666666;..........",
"  .........;666666666;........++",
"  .........;666665556;........++",
"  .........;666665556;..........",
"  .........;666665556;..........",
"...........;666666666;........++",
"...........;666665556;........++",
"...........;666665556;........++",
"...........:666666666:........++",
"  .........@$=66653&$@..........",
"  ............66666.............",
"  ...........o111<>X............",
"  ..............................",
"  ............................++",
"  ............................++",
"  ............................++",
"  ............................++",
"++++++....++..++++++++..++++++++",
"++++++....++..++++++++..++++++++"
};
