/* XPM */
static char *C3[] = {
/* columns rows colors chars-per-pixel */
"32 32 17 1 ",
"  c #222222",
". c #483B3A",
"X c #775C55",
"o c #D17C2F",
"O c #D28231",
"+ c #ED892D",
"@ c #ED8A2D",
"# c #EE912F",
"$ c #EF912F",
"% c #DAAF3C",
"& c #DCB53E",
"* c #F9C73C",
"= c #F9C73D",
"- c #F9C83C",
"; c #F9C83D",
": c #FACE3E",
"> c #FBCF3F",
/* pixels */
"      ..        ......  ..      ",
"      ..        ......  ..      ",
"  ............................XX",
"  ............................XX",
"..............................XX",
"..............................XX",
"..............................XX",
"..............................XX",
"  ............................XX",
"  ............&%Oo............XX",
"..............>;$@............XX",
"..............>=$@............XX",
"  ............>=$@..............",
"  ............>=$@..............",
"  ............>=$@............XX",
"  ............>=$@............XX",
"  ............:-#+..............",
"  ............:*$@..............",
"..............:*$@............XX",
"..............:*$@............XX",
"..............:*$@............XX",
"..............:*$@............XX",
"  ............:*$@..............",
"  ............>;#+..............",
"  ..............................",
"  ..............................",
"  ............................XX",
"  ............................XX",
"  ............................XX",
"  ............................XX",
"XXXXXX....XX..XXXXXXXX..XXXXXXXX",
"XXXXXX....XX..XXXXXXXX..XXXXXXXX"
};
