/* XPM */
static char *C4[] = {
/* columns rows colors chars-per-pixel */
"32 32 62 1 ",
"  c #222222",
". c #483B3A",
"X c #493B3A",
"o c #5D4638",
"O c #5F4738",
"+ c #5A4D4C",
"@ c #5F5351",
"# c #775C55",
"$ c #E17E1F",
"% c #EC7D1A",
"& c #EC7F1B",
"* c #D37F2F",
"= c #CA7A30",
"- c #CA7D31",
"; c #F9BD08",
": c #EF8E21",
"> c #E6872D",
", c #EC892C",
"< c #EE8C2D",
"1 c #EE8F2E",
"2 c #E18D30",
"3 c #F4B739",
"4 c #F8BF38",
"5 c #FAC21B",
"6 c #FAC421",
"7 c #FAC422",
"8 c #FAC92F",
"9 c #F9C53C",
"0 c #F9C73C",
"q c #FACA3A",
"w c #FACB3D",
"e c #FACB3E",
"r c #FBD03F",
"t c #FBD13F",
"y c #FBD240",
"u c #FDD943",
"i c #FACF5A",
"p c #FBD152",
"a c #908581",
"s c #958C89",
"d c #978E8B",
"f c #A49A90",
"g c #B4ABA5",
"h c #FCE298",
"j c #FCE39F",
"k c #E6D3A3",
"l c #F9DAAC",
"z c #ECD0B3",
"x c #FCE4A0",
"c c #FCE4A1",
"v c #D2CBC3",
"b c #D3CCC4",
"n c #D7CFC7",
"m c #D5D2D1",
"M c #F9DDC4",
"N c #F9DEC8",
"B c #E3DCD3",
"V c #FEF7E3",
"C c #F1F0F0",
"Z c #FDFEFF",
"A c #FDFFFF",
"S c white",
/* pixels */
"      ..        ......  ..      ",
"      ..        ......  ..      ",
"  ............................##",
"  ............................##",
"..............................##",
"..............................##",
"..............................##",
"..............................##",
"  ............................##",
"  ............,%NSd...........##",
"............oO2:lVf@+.........##",
"............<19tw6xZb.........##",
"  ..........<10yq5jZn...........",
"  ..........<19re7cZv...........",
"  ..........<19re7cZv.........##",
"  ..........<19re7cZv.........##",
"  ..........<19re7cZv...........",
"  ..........<19re7cZv...........",
"............<19re7cZv.........##",
"............<19re7cZv.........##",
"............<1eu8;hAB.........##",
"............=-34ipkmg.........##",
"  ............>&MSs.............",
"  ...........X*$zCa.............",
"  ..............................",
"  ..............................",
"  ............................##",
"  ............................##",
"  ............................##",
"  ............................##",
"######....##..########..########",
"######....##..########..########"
};
