/* XPM */
static char *E[] = {
/* columns rows colors chars-per-pixel */
"32 32 81 1 ",
"  c #1E1E1D",
". c #241E1D",
"X c #291D1D",
"o c #1E2013",
"O c #1D221E",
"+ c #24221D",
"@ c #2A221D",
"# c #1E1F22",
"$ c #1E1E28",
"% c #241E23",
"& c #1D2223",
"* c #1C2922",
"= c #1B2329",
"- c #1D2929",
"; c #232223",
": c #2A2222",
"> c #232329",
", c #2C2628",
"< c #222828",
"1 c #3F3A36",
"2 c #3D3C38",
"3 c #5E242D",
"4 c #5A2633",
"5 c #473737",
"6 c #453A35",
"7 c #4A3A36",
"8 c #473738",
"9 c #49363A",
"0 c #463B3A",
"q c #4A3B3B",
"w c #513B39",
"e c #622425",
"r c #65242D",
"t c #632234",
"y c #3D4035",
"u c #45403E",
"i c #4B423D",
"p c #473A41",
"a c #4A3D41",
"s c #434240",
"d c #6D5A4C",
"f c #765C4F",
"g c #7A584C",
"h c #6E5B53",
"j c #6E5C59",
"k c #7E5750",
"l c #755C55",
"z c #795C54",
"x c #7F5758",
"c c #745D5A",
"v c #795D59",
"b c #6F615E",
"n c #736056",
"m c #74605A",
"M c #715A60",
"N c #716261",
"B c #8E3E19",
"V c #8F3D27",
"C c #8F3F28",
"Z c #923E23",
"A c #943F2B",
"S c #883F30",
"D c #953F32",
"F c #8B4124",
"G c #8B422F",
"H c #92412E",
"J c #884032",
"K c #BF6326",
"L c #BD6428",
"P c #C45D1E",
"I c #C55E23",
"U c #C85E26",
"Y c #C35D2A",
"T c #C95E28",
"R c #D15D2E",
"E c #C26126",
"W c #C96124",
"Q c #C26927",
"! c #C3622A",
"~ c #CB622C",
"^ c #805A4D",
/* pixels */
";;&;;+qqO;&;&+&O000q00;;6u;&;&&;",
";&;;+:00:>+:;:::60qqq8:;06:;;.@+",
";;00000q0000000q000q8s00qqqq0qjm",
"+:00aq000qqq000000qw9qqqq9qq87cz",
"00qq98000q00q00000qqqqqqq800i7zz",
"00q0q908qq0q00q0i070q007000007lz",
"00u0q0q0qqqqqqqq77000q000000iwll",
"qq000q8qqqqqqqqq0q00006i7q8077nl",
":;005q20WIlmgcgnzvMzl^E!yqppq6c^",
";;wqqw57PRvcvdzzllclzcEW7q779wlz",
"asq8mlzzQY+OWLQYWP!WlzEPllnz08vl",
"q0q6nvhvP~O&WIYTUWEPjlIUmllc0alc",
"++cvvv+OWY+>%&>%&&&&.+KWgc@+cv77",
"o+ccvv -EE;&++@++:+:;%!!zmOOmc77",
":O::hc+;UUO;U~YEY!!K;XEU+X:>+@cv",
"&-%Xcz@;KU;;UPKEWPWK;%QU>&; +.cl",
"O:%>#<;>BH+;+;.&>+;O&.HB%;&:&:20",
"& &;% ,.DJ;=:&%&#%&:=:GD;&&O;.q9",
"0s+#;;O*ZF++FFVCCZFF++FV++;:O:0p",
"00:.%;;&GS:+CZAAAAZZ+;GG>;;++@57",
"6ilm: <%rr&;<=:OO;=&;;rr&&;+bhvl",
"7wlb.;+;3r&:O$+&;+=O:#r3;:X:jclv",
"&+0qlvlcrr$%ere4trrr%$r3cjccq7q5",
">;u7ckzzte>;ett44t3e>>etfczc7qq8",
";+0q8q7ulclclfzlzzzccczl000qqq0p",
";%08q070zzzvzzvvcvvvvvzzq0q0q7q5",
"&;a0wqq0670q66iq768055i6770q77ln",
";%00qqq0qqqq0q770qqi06757q0qq7nl",
";:i0750u009q86q700qq5800qq00q7vz",
"+@777q60s60020i70u575i2u70q7qqlz",
"mhclcji55wzvqqhvvlvvzlwqmcccczcl",
"lzzzvv77q7lm77cfzzzzcm06lzzfffzc"
};
