/* XPM */
static char *E2[] = {
/* columns rows colors chars-per-pixel */
"32 32 52 1 ",
"  c #1D1E1D",
". c #241E1D",
"X c #291D1D",
"o c #1E2013",
"O c #1D221E",
"+ c #24221D",
"@ c #2A221D",
"# c #1E1F23",
"$ c #231E23",
"% c #2B1F21",
"& c #1E2222",
"* c #1D2921",
"= c #1E2629",
"- c #1D2929",
"; c #222222",
": c #2A2322",
"> c #232429",
", c #2C2628",
"< c #3F3A36",
"1 c #3D3C38",
"2 c #473737",
"3 c #453A35",
"4 c #4A3A36",
"5 c #473738",
"6 c #49363A",
"7 c #463B3A",
"8 c #4A3B3B",
"9 c #513B39",
"0 c #3D4035",
"q c #45403E",
"w c #4B423D",
"e c #473A41",
"r c #4A3D41",
"t c #434240",
"y c #755D4F",
"u c #6F5753",
"i c #6E5C54",
"p c #6E5B59",
"a c #745654",
"s c #7B5751",
"d c #755C55",
"f c #795C54",
"g c #7F5758",
"h c #745D5A",
"j c #795D5A",
"k c #6F615E",
"l c #726156",
"z c #74605A",
"x c #72685E",
"c c #706261",
"v c #805954",
"b c #805E5D",
/* pixels */
";;&;;+88;;+;+&;;774877;$37;&==O;",
";;;;+:77;;;;;;+;378877:;73%;..@.",
";;7e77777777877778788r77888r78pz",
"+;78r8778888888878885877888824lj",
"738866878777788877888888877584fy",
"7778878777877778w73788848777w4df",
"878q78788888888823777w738777w4hy",
"887777268888888887w2772q477844dj",
";;877817vdyhdjalsdzdlfdh188r84dg",
";;888424hilfldfdhhdfsfdz482484dh",
"e788ldhf:@dsdiffffajfbajdilj77jf",
"8784djdj=+jskxajddjjjh@+jddd78hd",
"++hjgf@O>.ja@.:Xjd+O*;*Osd@@hj44",
"o+khjj -;+jj+O>;fd@O;;&;fkOOzd44",
":*%:uj+& ;pp,=$&cp:;$$%.+.:>@@hj",
"*-$Xzd@;;;::&&;+@; >$;&*;&; O.hd",
"O;$>#>$;;O;;;;$;;;;;;;;&%;;;&;77",
"*#;;$#,.;$;;;;;&;;+;;&$;;&;O;.r6",
"6r;+;;&*;;;;;;;;;;;;;+;; ;;;+;77",
"77;.%;*;;;;;;&;+;;;;;;;;,;;..@28",
"34lc:O,#;;;;;&;;;;;;;;;;&&;+zizf",
"49dk@+&;;;&;;;;;;;+;;&;&;:.:phdj",
"&+74dhdh+$;;;;;;;;;;;;;;hphh4482",
">;q8jssd&;;;;;;;;;#;;;$;fdjf8887",
";+784827yhdhdydhfdjdhdfd7778877e",
";.778487djfjfffjfjfhjjjf88788482",
";;r7884834884338477732w3447844dl",
">#e7888788788884778w8442487784jd",
";;q84277757873847788223q888784hf",
"@@44483qt38817w478282w17488484dj",
"kidhdd8379df88ujdfjjjd88zlhhhdld",
"ylfjjj4884fz44hfffyfhz83dfysyfyj"
};
