/* XPM */
static char *P[] = {
/* columns rows colors chars-per-pixel */
"32 32 197 2 ",
"   c #020202",
".  c #0B0300",
"X  c #000906",
"o  c #04050A",
"O  c #0C0608",
"+  c #010A0B",
"@  c #0E0B09",
"#  c #120C0A",
"$  c #090C11",
"%  c #150A10",
"&  c #051014",
"*  c #091915",
"=  c #131313",
"-  c #111519",
";  c #131C1A",
":  c #1D1C1B",
">  c #1A1A18",
",  c #12150A",
"<  c #231F1C",
"1  c #251C1A",
"2  c #371A16",
"3  c #0D241A",
"4  c #16211C",
"5  c #1C211C",
"6  c #23211F",
"7  c #2A221E",
"8  c #0E1E21",
"9  c #061B20",
"0  c #171E21",
"q  c #210E22",
"w  c #221F21",
"e  c #381B2F",
"r  c #381E3B",
"t  c #1C2223",
"y  c #1A262A",
"u  c #072422",
"i  c #232322",
"p  c #2A2423",
"a  c #252A24",
"s  c #29282A",
"d  c #392A2A",
"f  c #3A302E",
"g  c #3A2531",
"h  c #273537",
"j  c #3D3534",
"k  c #3D3B39",
"l  c #343730",
"z  c #2C2B33",
"x  c #501B09",
"c  c #491F13",
"v  c #55281E",
"b  c #682F1C",
"n  c #68133A",
"m  c #4B3A2F",
"M  c #5E3229",
"N  c #573326",
"B  c #492330",
"V  c #552634",
"C  c #433635",
"Z  c #4A3536",
"A  c #443A36",
"S  c #4A3A36",
"D  c #46373B",
"F  c #49373B",
"G  c #453B3A",
"H  c #4A3B3B",
"J  c #472C25",
"K  c #67362A",
"L  c #652437",
"P  c #6D3636",
"I  c #7C3D37",
"U  c #3B4230",
"Y  c #44403E",
"T  c #4B413F",
"R  c #494136",
"E  c #75452F",
"W  c #601E44",
"Q  c #5C2444",
"!  c #5A284E",
"~  c #423A42",
"^  c #4A3D43",
"/  c #473742",
"(  c #5A2A5E",
")  c #7B2940",
"_  c #613A66",
"`  c #394646",
"'  c #414342",
"]  c #494848",
"[  c #594E4C",
"{  c #5A5452",
"}  c #614554",
"|  c #6E5B55",
" . c #6F5C58",
".. c #745B55",
"X. c #7A5B55",
"o. c #755D59",
"O. c #795D59",
"+. c #76524A",
"@. c #75615B",
"#. c #6A6957",
"$. c #794E6C",
"%. c #795A62",
"&. c #536662",
"*. c #636362",
"=. c #6A696B",
"-. c #696967",
";. c #677568",
":. c #B8113C",
">. c #8D392D",
",. c #993D30",
"<. c #BF3D2F",
"1. c #C63E18",
"2. c #D73A22",
"3. c #D43A2D",
"4. c #DA3725",
"5. c #CE3726",
"6. c #E73128",
"7. c #80413A",
"8. c #9B4230",
"9. c #A7442F",
"0. c #A84F3D",
"q. c #EF431B",
"w. c #DA462B",
"e. c #D9482A",
"r. c #C94938",
"t. c #D64D36",
"y. c #D54D3A",
"u. c #DA4C39",
"i. c #D74333",
"p. c #D85539",
"a. c #E24A34",
"s. c #E44C3A",
"d. c #F24831",
"f. c #E25132",
"g. c #FD573B",
"h. c #F75438",
"j. c #EB4626",
"k. c #DA623F",
"l. c #AA2D4F",
"z. c #B12B4C",
"x. c #AD2B51",
"c. c #B12C59",
"v. c #AD2660",
"b. c #C42962",
"n. c #894245",
"m. c #924140",
"M. c #8A564B",
"N. c #B45746",
"B. c #8D625B",
"V. c #8B7275",
"C. c #DB5149",
"Z. c #DD5545",
"A. c #D94A42",
"S. c #E14D41",
"D. c #FF4D48",
"F. c #F35440",
"G. c #FB5B47",
"H. c #DD674D",
"J. c #DE715C",
"K. c #D76356",
"L. c #FF6547",
"P. c #E57C5F",
"I. c #C1726B",
"U. c #DF7960",
"Y. c #E57E75",
"T. c #DD8368",
"R. c #DE887B",
"E. c #FF8E7D",
"W. c #E38563",
"Q. c #996989",
"!. c #8B8C8B",
"~. c #948C8B",
"^. c #8E8F91",
"/. c #9B9A99",
"(. c #94A19A",
"). c #A2A89A",
"_. c #AAB3B0",
"`. c #B7B8B7",
"'. c #C39389",
"]. c #EA8882",
"[. c #E3A8A0",
"{. c #F7BCB8",
"}. c #F6CFBE",
"|. c #B6BEC0",
" X c #CABFC3",
".X c #CFCFC5",
"XX c #D5D8CF",
"oX c #E4C1C5",
"OX c #FFCAC5",
"+X c #F0E3DA",
"@X c #FAEEEA",
"#X c #FAF1EE",
"$X c #F8FAEF",
"%X c #F3F1F5",
"&X c #FEFDF4",
"*X c #F6FFFD",
"=X c #FDFEFD",
/* pixels */
"i i i i i 6 G H i a i i i i p i G G G G G G p i G G 6 5 a i 0 i ",
"i t i i 6 p A G p : i i i i 6 6 H H H H G Y 6 6 H G p : i < p 7 ",
"i i G ~ G G H G A H G G G G G Y H F Z H S G G G H H D H G H o.o.",
"< p G G H H G G G T A T C H G G H G G Z H H Z H H F H G H Z ....",
"G G H H F D G G Y 7 . S H F H H H A H H H H p O G G T C G S ..X.",
"G G H G H H H G 1 *.`.j p H H ^ H Z ^ C D : *.`.k p H ^ G m @.X.",
"G G G G G H H F   /.*X[ 7 G G G G G G k j @ (.=X' @ D H G A @.X.",
"S H G G G H C H   !.=X%X`.= 0 - 8 0 ; ; G %X#X&X' % H S A G ..X.",
"p 6 G G H H G G . !.=X=X X& J K M N K 1 ` =X&X&X' = G G G S ..X.",
"w p G G H H A H   (.=X&XXX  8.g.s.h.g.2 h &X=X=X' # G H G H ..X.",
"~ G G S H S G G q ` ;.&.| ,.r.f.s.s.s.9.n.*.=.#.j f H D H H o.O.",
"~ G H H H H T G a % % o c L.f.t.t.u.u.g.r.O $ + A H H H H H  ...",
"p p G H H H G G ; Q x.r.e.6.3.2.y.p.e.p.a.4.b 8 A C H H G G G S ",
"w < G H S G G H 3 V l.i.Z.].R.T.p.t.S.t.u.E.M.* j G G F H A Z S ",
"i 6 G Y H G H G 4 L c.3.W.&X&X=Xs.i.C.4.P.*X^.  A G H H Z H @...",
"i i k G A H H H 3 L v.3.P.*X=X@XZ.u.e.e.K.&X~.  C G H H H S ..@.",
"i i G H H S G A 4 L x.5.J.%X@X+XZ.y.y.e.H.%X~.  G G H G H H G G ",
"i p G G G H G H u W b.6.9._ ( Q h.d.4.h.C.! e t A H H H H D H S ",
"G G G H G H G F 5 V ) Y.I.B $.Q.8.N.R.0.m.Q.} = j G G G T H ..o.",
"G H G G G H H H < > * =X%Xo .X=X+ ;.=X' t =X).  D G G A S Z O.X.",
"H H G G G H G H a t - -.{ - [ =.; l =.z t -.U = j G G G S S X.X.",
"G G G G H H H D 5 s s . , z - o g w o 7 s o t f G G H G H S ..@.",
"< p G G G A T H   ^.=Xy ` *X&.+ *X_.X XX$X  !.*X{ H H S H H H Z ",
"i i G H H H G A o V.oXP +.OXB.v }.'.2 [.{.x V.|.[ H F H H G G R ",
"i 6 A G S Z S Y 3 n :.D.h.2.s.g.1.w.F.j.q.L.>.. C G G H G H G G ",
"i < G H H H S G 4 g B N P E I E E I n.P v M d y C G G H H H H D ",
"i s ^ G S H H G i 7 4 * t R G ~ H H D y * 0 w p C H H H Z H  .o.",
"i 0 ~ D S H H G Y S H ^ ^ Z H G F F G k ' / S m S H G G H H ....",
"i 6 T G H S G Y / ] D G ^ Z Z G ^ G G G T Z H ' H H G G H H X.X.",
"6 7 S H Z H A G H A G S A H H G S H H H Z S G G S H H S G H ..@.",
"@.| ....o...R H H m +.X.Z R ..X.X.X.X.O.@...H Z o.o...@.X...O.X.",
"X.@.X.X.O.O.Z H G R o.%.^ G X.X...O...X.X.@.S G ..X.X.X.X.X...X."
};
